HIERARCHY
ROOT Hips
{
  OFFSET 265.287 66.7526 -254.649
  CHANNELS 6 Xposition Yposition Zposition Zrotation Xrotation Yrotation
  JOINT LeftUpLeg
  {
    OFFSET 8.64259 1.95398 -2.38835
    CHANNELS 3 Zrotation Xrotation Yrotation
    JOINT LeftLeg
    {
      OFFSET 43.7702 0 0
      CHANNELS 3 Zrotation Xrotation Yrotation
      JOINT LeftFoot
      {
        OFFSET 40.6238 0 0
        CHANNELS 3 Zrotation Xrotation Yrotation
        JOINT LeftToeBase
        {
          OFFSET 12.7242 0 0
          CHANNELS 3 Zrotation Xrotation Yrotation
          End Site
          {
            OFFSET 0 0 0
          }
        }
      }
    }
  }
  JOINT RightUpLeg
  {
    OFFSET -8.2249 1.95398 -2.59336
    CHANNELS 3 Zrotation Xrotation Yrotation
    JOINT RightLeg
    {
      OFFSET 43.5653 0 0
      CHANNELS 3 Zrotation Xrotation Yrotation
      JOINT RightFoot
      {
        OFFSET 40.6238 0 0
        CHANNELS 3 Zrotation Xrotation Yrotation
        JOINT RightToeBase
        {
          OFFSET 12.7242 0 0
          CHANNELS 3 Zrotation Xrotation Yrotation
          End Site
          {
            OFFSET 0 0 0
          }
        }
      }
    }
  }
  JOINT Spine
  {
    OFFSET 0.165834 0.87714 6.61349
    CHANNELS 3 Zrotation Xrotation Yrotation
    JOINT Spine1
    {
      OFFSET 7.38963 1.71661e-005 0
      CHANNELS 3 Zrotation Xrotation Yrotation
      JOINT Spine2
      {
        OFFSET 11.9445 1.14441e-005 0
        CHANNELS 3 Zrotation Xrotation Yrotation
        JOINT Spine3
        {
          OFFSET 14.7254 4.19617e-005 0
          CHANNELS 3 Zrotation Xrotation Yrotation
          JOINT Spine4
          {
            OFFSET 10.9679 0 0
            CHANNELS 3 Zrotation Xrotation Yrotation
            JOINT RightShoulder
            {
              OFFSET 2.46616 -1.6653 3.69651
              CHANNELS 3 Zrotation Xrotation Yrotation
              JOINT RightArm
              {
                OFFSET 13.0012 0 0
                CHANNELS 3 Zrotation Xrotation Yrotation
                JOINT RightForeArm
                {
                  OFFSET 28.7848 1.52588e-005 0
                  CHANNELS 3 Zrotation Xrotation Yrotation
                  JOINT RightHand
                  {
                    OFFSET 26.5688 1.52588e-005 0
                    CHANNELS 3 Zrotation Xrotation Yrotation
                    End Site
                    {
                      OFFSET 0 0 0
                    }
                  }
                }
              }
            }
            JOINT LeftShoulder
            {
              OFFSET 2.38034 -1.29275 -3.7523
              CHANNELS 3 Zrotation Xrotation Yrotation
              JOINT LeftArm
              {
                OFFSET 16.3182 6.10351e-005 0
                CHANNELS 3 Zrotation Xrotation Yrotation
                JOINT LeftForeArm
                {
                  OFFSET 27.0901 0 0
                  CHANNELS 3 Zrotation Xrotation Yrotation
                  JOINT LeftHand
                  {
                    OFFSET 24.5451 1.52588e-005 0
                    CHANNELS 3 Zrotation Xrotation Yrotation
                    End Site
                    {
                      OFFSET 0 0 0
                    }
                  }
                }
              }
            }
            JOINT Neck
            {
              OFFSET 5.0226 -0.0266342 0
              CHANNELS 3 Zrotation Xrotation Yrotation
              JOINT Head
              {
                OFFSET 6.69364 2.86102e-005 0
                CHANNELS 3 Zrotation Xrotation Yrotation
                End Site
                {
                  OFFSET 0 0 0
                }
              }
            }
          }
        }
      }
    }
  }
}
MOTION
Frames:	10
Frame Time:	0.0416667
-134.867 87.6457 136.45 96.5531 41.2163 85.764 -177.958 29.2838 87.7401 -8.58768 18.2362 2.05498 53.2271 -1.39501 10.7807 47.9741 -5.7399 2.54847 176.897 -9.20997 93.3535 -38.5117 -6.65999 -2.54442 73.4522 -1.79241 16.5809 50.3748 -3.11228 0.0113635 1.18706 8.0233 -90.6984 10.8407 2.04104 -1.57977 -0.829753 1.96954 -1.66808 -23.3747 2.42141 -0.893132 -3.36206 2.42141 -0.893136 100.318 -41.989 -85.3543 17.1702 -43.8781 -19.9966 -18.1742 15.5139 -94.9854 10.3191 -0.275638 -7.68055 -80.564 -41.4524 92.2709 -6.28834 13.5509 6.40764 4.42911 -0.59539 -36.236 9.58263 -0.44496 -7.75384 11.277 0.58856 0.222271 -9.61603 -0.0161059 9.96119 
-122.664 85.145 122.168 98.2987 36.5665 79.4962 -176.3 34.1927 82.5684 -36.8191 18.6049 -0.402061 49.3183 -3.42914 14.0809 50.7016 -6.50839 1.42573 173.556 -5.51761 80.8485 -57.4676 -12.5264 -4.83662 44.3202 7.67196 21.2234 53.5866 -2.1778 12.002 1.22934 8.2103 -89.6885 10.4449 2.5915 0.398399 -1.22348 2.60651 0.283871 -23.7755 2.35184 1.1592 -3.7628 2.35183 1.1592 100.512 -43.1949 -84.9751 20.8965 -46.3395 -18.162 -20.756 5.14584 -76.7906 2.06397 -0.00300775 -4.58937 -82.7626 -49.2456 89.3381 -8.41281 16.0797 -1.47023 1.5899 -2.75554 -34.3212 11.3628 -0.779068 -10.1291 16.2889 0.64235 -2.41187 -11.5198 0.520309 11.2101 
-111.125 83.8481 110.795 103.655 41.5134 73.411 -175.194 28.4404 77.7799 -53.8649 24.5445 -2.09822 63.1363 6.03568 27.2412 39.8487 -3.42359 -5.11326 177.606 10.4002 79.9593 -97.823 -10.744 -4.62046 45.1058 6.31766 12.7443 42.5831 -2.20266 -5.0945 0.273907 8.78616 -89.2039 9.28524 0.903465 1.50458 -2.38636 0.968798 1.46336 -24.9139 0.409658 1.70649 -4.90128 0.409663 1.70649 101.019 -46.8295 -84.0253 24.3355 -31.4554 -11.2086 -30.865 -13.7635 -66.3357 0.605958 0.0214743 0.22445 -86.0468 -50.9155 84.5613 -6.65091 25.1018 -22.6805 2.27566 2.34491 -33.2903 7.06365 -0.597654 -10.4858 22.5878 0.717899 -4.9771 -13.0477 1.39284 11.4422 
-100.445 89.3176 99.8447 104.173 45.1187 78.6826 -177.113 14.5374 83.2651 -49.5594 27.0322 1.5469 67.9085 7.94139 23.8701 40.7526 -3.68839 -1.19614 176.326 32.1302 87.7294 -111.167 -6.9092 -3.88046 49.4141 3.62127 12.8719 42.2427 -1.95384 -1.89968 -0.565324 8.57079 -89.8078 9.74316 -1.0397 0.46681 -1.92739 -1.01819 0.512116 -24.4666 -1.13196 0.132712 -4.45395 -1.13197 0.132706 101.291 -46.3596 -83.5913 24.3076 -20.7273 0.172501 -32.0002 -16.8848 -64.9907 -3.28468 -0.158406 0.641976 -86.0073 -47.5846 84.1334 -6.28815 32.2202 -38.3935 3.871 0.0704771 -43.2572 7.93019 -0.54462 -9.38366 19.9377 2.92678 -5.92347 -13.3202 3.68212 11.7335 
-89.6791 98.7872 89.1343 107.116 47.9511 81.4778 -177.934 2.76729 89.2523 -38.6583 17.9573 5.05454 40.2203 -6.94979 -0.675133 44.1363 -4.93167 -5.90584 173.395 37.5425 92.2796 -98.322 -5.60756 -3.02989 56.1161 2.57146 16.841 50.2814 -3.03711 0.811563 -1.26871 8.29946 -90.4313 10.2691 -2.72477 -0.62247 -1.39913 -2.74949 -0.50188 -23.952 -2.41168 -1.41301 -3.93934 -2.41167 -1.41301 101.851 -43.3258 -82.695 18.8181 -21.6896 9.18188 -20.3141 -9.94349 -61.6156 -5.08985 -0.144247 -2.10003 -84.2944 -46.3852 86.6496 -4.61336 38.3546 -44.836 3.32366 -7.18097 -59.2914 5.68 -0.553402 -10.9389 12.3176 4.5151 -8.29116 -14.0359 4.99278 15.8394 
-80.1655 105.171 79.1845 107.977 49.3186 81.9582 -177.218 0.000492459 89.7216 -30.3462 16.9221 4.47654 37.7592 -7.80167 1.09678 31.5582 -0.515241 -3.81611 175.608 36.0502 93.3735 -77.3737 -4.3852 -1.71032 60.8216 1.78468 18.0292 46.1305 -2.62613 -3.01484 -1.37453 8.21311 -90.4597 10.442 -2.94897 -0.653429 -1.22575 -2.97486 -0.522896 -23.7818 -2.61619 -1.51002 -3.76918 -2.61618 -1.51002 101.587 -39.5791 -83.1929 15.8442 -20.0028 17.9387 -12.4996 -5.73773 -59.0923 -4.15047 -0.138417 -1.73026 -83.6786 -44.1651 87.3652 2.55854 42.223 -54.5349 6.5793 -12.0122 -75.2626 6.8215 -0.56142 -10.2026 11.634 3.93124 -11.6556 -14.8051 4.97561 17.0606 
-70.4609 105.071 69.9642 107.931 53.8286 83.174 -174.903 1.47781 90.8067 -16.8579 15.4276 3.42796 35.8525 -8.42526 -3.26921 38.3504 -2.97116 0.453237 176.387 30.0588 94.0855 -49.8941 -6.29233 0.591147 60.9811 3.22656 22.7403 47.9339 -2.80496 -0.667186 -1.62249 8.27368 -90.5496 10.3163 -3.48379 -0.791113 -1.35016 -3.51522 -0.636847 -23.9142 -3.08487 -1.80241 -3.90159 -3.08486 -1.80241 101.501 -37.5115 -83.3802 8.82727 -16.7387 21.1595 -6.1694 -4.70858 -49.4868 -2.29895 -0.0519193 -3.16322 -84.9825 -41.552 84.8481 7.98463 41.2845 -65.0111 7.491 -14.9049 -87.8049 7.63085 -0.443729 -8.44758 15.0469 1.87844 -15.4181 -17.0086 3.89859 17.7616 
-60.6096 98.0061 60.7537 113.44 56.9834 77.5145 -176.686 2.35066 87.7532 -30.0391 20.2929 4.06479 54.4756 -0.704847 11.3024 39.3497 -3.20817 -2.49689 178.69 24.9716 92.2988 -29.0232 -2.28772 0.0637563 59.7449 3.87149 23.212 47.1945 -2.69885 -0.922345 -1.71706 8.60103 -90.3144 9.66501 -3.56496 -0.349451 -2.00108 -3.57687 -0.192032 -24.5703 -3.29495 -1.40585 -4.55769 -3.29495 -1.40585 101.904 -36.393 -82.6403 2.76702 -9.67719 23.5349 -4.6823 -7.17606 -38.9531 -4.618 -0.139107 -1.71186 -85.366 -37.7337 83.5781 11.2499 35.9901 -76.4152 3.44027 -15.0373 -94.2325 7.46819 -0.457275 -8.6216 12.6132 0.504902 -17.6479 -15.1767 3.10666 17.6382 
-50.2497 90.3224 51.6866 118.711 55.116 67.31 -175.831 -7.20022 84.9066 -40.1572 27.0559 2.00917 73.4339 16.8829 35.7709 42.6537 -4.36198 -4.34606 179.359 22.0344 87.0147 -13.1964 -2.35736 -2.01813 55.5034 4.9521 23.4962 44.4326 -2.25909 -0.0645324 -1.55418 9.12732 -89.5164 8.63407 -2.88673 1.14258 -3.0343 -2.83366 1.26859 -25.5948 -3.09656 0.221413 -5.58219 -3.09656 0.221411 103.327 -36.8161 -79.9961 4.23802 -3.58551 22.8209 -6.61722 -15.1254 -30.5055 -10.8681 -0.600702 1.29528 -85.6017 -36.0298 82.8451 13.241 33.1104 -79.5634 11.6457 -15.7492 -92.5677 4.23235 -0.414591 -9.98183 13.9408 0.300052 -16.6803 -15.0667 3.19877 14.4544 
-38.2442 90.4224 39.6581 110.625 59.0278 72.963 -176.121 -10.0797 88.2267 -43.0921 26.6723 4.03646 68.0426 9.1987 21.2373 53.5838 -7.39909 2.62482 178.146 23.6819 85.4706 -6.25136 6.99963 -1.05042 54.4714 6.03144 20.6693 43.9944 -2.2142 -0.697918 -1.60925 8.2668 -89.8245 10.364 -3.12509 0.637429 -1.30339 -3.09399 0.774466 -23.8692 -3.1721 -0.332208 -3.85651 -3.1721 -0.332211 104.908 -40.3285 -77.3068 12.7303 -0.870685 24.1069 -6.23507 -18.2547 -24.4993 -6.28552 -0.357682 1.33848 -85.9588 -40.587 83.0508 12.5302 44.8181 -66.8163 14.7442 -12.3505 -76.2481 1.71474 -0.318672 -10.7107 8.71729 1.21026 -12.8765 -13.3703 2.71124 14.5598 
